<svg xmlns="http://www.w3.org/2000/svg" width="1080" height="1350" viewBox="0 0 1080 1350">
<defs>
<linearGradient id="dusk" x1="0" y1="0" x2="0" y2="1"><stop offset="0" stop-color="#1a1030"/><stop offset="0.7" stop-color="#4a2555"/><stop offset="1" stop-color="#8a3d4a"/></linearGradient>
</defs>
<rect width="1080" height="1350" fill="url(#dusk)"/><circle cx="284" cy="572" r="56" fill="#ffb347" opacity="0.12"/><ellipse cx="284" cy="572" rx="21" ry="28" fill="#ffb347"/><ellipse cx="284" cy="572" rx="13" ry="28" fill="#ffd27a" opacity="0.6"/><circle cx="861" cy="296" r="86" fill="#ffb347" opacity="0.12"/><ellipse cx="861" cy="296" rx="32" ry="43" fill="#ffb347"/><ellipse cx="861" cy="296" rx="19" ry="43" fill="#ffd27a" opacity="0.6"/><circle cx="966" cy="465" r="118" fill="#ffb347" opacity="0.12"/><ellipse cx="966" cy="465" rx="44" ry="59" fill="#ffb347"/><ellipse cx="966" cy="465" rx="26" ry="59" fill="#ffd27a" opacity="0.6"/><circle cx="771" cy="619" r="92" fill="#ffb347" opacity="0.12"/><ellipse cx="771" cy="619" rx="34" ry="46" fill="#ffb347"/><ellipse cx="771" cy="619" rx="21" ry="46" fill="#ffd27a" opacity="0.6"/><circle cx="626" cy="427" r="120" fill="#ffb347" opacity="0.12"/><ellipse cx="626" cy="427" rx="45" ry="60" fill="#ffb347"/><ellipse cx="626" cy="427" rx="27" ry="60" fill="#ffd27a" opacity="0.6"/><circle cx="444" cy="1064" r="109" fill="#ffb347" opacity="0.12"/><ellipse cx="444" cy="1064" rx="41" ry="54" fill="#ffb347"/><ellipse cx="444" cy="1064" rx="24" ry="54" fill="#ffd27a" opacity="0.6"/><circle cx="68" cy="323" r="80" fill="#ffb347" opacity="0.12"/><ellipse cx="68" cy="323" rx="30" ry="40" fill="#ffb347"/><ellipse cx="68" cy="323" rx="18" ry="40" fill="#ffd27a" opacity="0.6"/><circle cx="855" cy="241" r="91" fill="#ffb347" opacity="0.12"/><ellipse cx="855" cy="241" rx="34" ry="45" fill="#ffb347"/><ellipse cx="855" cy="241" rx="20" ry="45" fill="#ffd27a" opacity="0.6"/><circle cx="407" cy="861" r="114" fill="#ffb347" opacity="0.12"/><ellipse cx="407" cy="861" rx="43" ry="57" fill="#ffb347"/><ellipse cx="407" cy="861" rx="26" ry="57" fill="#ffd27a" opacity="0.6"/><circle cx="802" cy="257" r="102" fill="#ffb347" opacity="0.12"/><ellipse cx="802" cy="257" rx="38" ry="51" fill="#ffb347"/><ellipse cx="802" cy="257" rx="23" ry="51" fill="#ffd27a" opacity="0.6"/><circle cx="478" cy="914" r="80" fill="#ffb347" opacity="0.12"/><ellipse cx="478" cy="914" rx="30" ry="40" fill="#ffb347"/><ellipse cx="478" cy="914" rx="18" ry="40" fill="#ffd27a" opacity="0.6"/><circle cx="947" cy="1066" r="107" fill="#ffb347" opacity="0.12"/><ellipse cx="947" cy="1066" rx="40" ry="53" fill="#ffb347"/><ellipse cx="947" cy="1066" rx="24" ry="53" fill="#ffd27a" opacity="0.6"/><circle cx="866" cy="895" r="89" fill="#ffb347" opacity="0.12"/><ellipse cx="866" cy="895" rx="33" ry="45" fill="#ffb347"/><ellipse cx="866" cy="895" rx="20" ry="45" fill="#ffd27a" opacity="0.6"/><circle cx="215" cy="1066" r="79" fill="#ffb347" opacity="0.12"/><ellipse cx="215" cy="1066" rx="30" ry="40" fill="#ffb347"/><ellipse cx="215" cy="1066" rx="18" ry="40" fill="#ffd27a" opacity="0.6"/><circle cx="56" cy="503" r="76" fill="#ffb347" opacity="0.12"/><ellipse cx="56" cy="503" rx="28" ry="38" fill="#ffb347"/><ellipse cx="56" cy="503" rx="17" ry="38" fill="#ffd27a" opacity="0.6"/><circle cx="241" cy="1040" r="53" fill="#ffb347" opacity="0.12"/><ellipse cx="241" cy="1040" rx="20" ry="26" fill="#ffb347"/><ellipse cx="241" cy="1040" rx="12" ry="26" fill="#ffd27a" opacity="0.6"/><circle cx="944" cy="621" r="58" fill="#ffb347" opacity="0.12"/><ellipse cx="944" cy="621" rx="22" ry="29" fill="#ffb347"/><ellipse cx="944" cy="621" rx="13" ry="29" fill="#ffd27a" opacity="0.6"/><circle cx="398" cy="519" r="53" fill="#ffb347" opacity="0.12"/><ellipse cx="398" cy="519" rx="20" ry="26" fill="#ffb347"/><ellipse cx="398" cy="519" rx="12" ry="26" fill="#ffd27a" opacity="0.6"/><circle cx="803" cy="725" r="119" fill="#ffb347" opacity="0.12"/><ellipse cx="803" cy="725" rx="44" ry="59" fill="#ffb347"/><ellipse cx="803" cy="725" rx="27" ry="59" fill="#ffd27a" opacity="0.6"/><circle cx="870" cy="862" r="120" fill="#ffb347" opacity="0.12"/><ellipse cx="870" cy="862" rx="45" ry="60" fill="#ffb347"/><ellipse cx="870" cy="862" rx="27" ry="60" fill="#ffd27a" opacity="0.6"/><circle cx="972" cy="717" r="85" fill="#ffb347" opacity="0.12"/><ellipse cx="972" cy="717" rx="32" ry="42" fill="#ffb347"/><ellipse cx="972" cy="717" rx="19" ry="42" fill="#ffd27a" opacity="0.6"/><circle cx="564" cy="890" r="114" fill="#ffb347" opacity="0.12"/><ellipse cx="564" cy="890" rx="43" ry="57" fill="#ffb347"/><ellipse cx="564" cy="890" rx="26" ry="57" fill="#ffd27a" opacity="0.6"/><circle cx="871" cy="916" r="46" fill="#ffb347" opacity="0.12"/><ellipse cx="871" cy="916" rx="17" ry="23" fill="#ffb347"/><ellipse cx="871" cy="916" rx="10" ry="23" fill="#ffd27a" opacity="0.6"/><circle cx="461" cy="149" r="88" fill="#ffb347" opacity="0.12"/><ellipse cx="461" cy="149" rx="33" ry="44" fill="#ffb347"/><ellipse cx="461" cy="149" rx="20" ry="44" fill="#ffd27a" opacity="0.6"/><circle cx="620" cy="632" r="109" fill="#ffb347" opacity="0.12"/><ellipse cx="620" cy="632" rx="41" ry="55" fill="#ffb347"/><ellipse cx="620" cy="632" rx="25" ry="55" fill="#ffd27a" opacity="0.6"/><circle cx="265" cy="803" r="89" fill="#ffb347" opacity="0.12"/><ellipse cx="265" cy="803" rx="33" ry="44" fill="#ffb347"/><ellipse cx="265" cy="803" rx="20" ry="44" fill="#ffd27a" opacity="0.6"/>
</svg>
