<svg xmlns="http://www.w3.org/2000/svg" width="1080" height="1350" viewBox="0 0 1080 1350">
<defs>
<radialGradient id="warm" cx="0.5" cy="0.35" r="0.9"><stop offset="0" stop-color="#ffd9a0" stop-opacity="0.18"/><stop offset="1" stop-color="#000" stop-opacity="0.45"/></radialGradient>
</defs>
<rect width="1080" height="1350" fill="#3b2517"/><rect x="60" y="150" width="28" height="180" rx="3" fill="#8c2f39"/><rect x="92" y="171" width="53" height="159" rx="3" fill="#c9c1a8"/><rect x="149" y="172" width="30" height="158" rx="3" fill="#8c2f39"/><rect x="183" y="135" width="42" height="195" rx="3" fill="#7a3b2e"/><rect x="229" y="171" width="36" height="159" rx="3" fill="#c9c1a8"/><rect x="269" y="138" width="30" height="192" rx="3" fill="#8c2f39"/><rect x="303" y="166" width="36" height="164" rx="3" fill="#5c3a6e"/><rect x="343" y="147" width="56" height="183" rx="3" fill="#b07d3c"/><rect x="403" y="143" width="41" height="187" rx="3" fill="#8c2f39"/><rect x="448" y="179" width="35" height="151" rx="3" fill="#7a3b2e"/><rect x="487" y="159" width="53" height="171" rx="3" fill="#2b4c7e"/><rect x="544" y="159" width="41" height="171" rx="3" fill="#b07d3c"/><rect x="589" y="142" width="51" height="188" rx="3" fill="#2b4c7e"/><rect x="644" y="134" width="41" height="196" rx="3" fill="#2b4c7e"/><rect x="689" y="143" width="54" height="187" rx="3" fill="#c9c1a8"/><rect x="747" y="177" width="31" height="153" rx="3" fill="#7a3b2e"/><rect x="782" y="158" width="39" height="172" rx="3" fill="#2b4c7e"/><rect x="825" y="171" width="41" height="159" rx="3" fill="#7a3b2e"/><rect x="870" y="179" width="52" height="151" rx="3" fill="#8c2f39"/><rect x="926" y="139" width="56" height="191" rx="3" fill="#7a3b2e"/><rect x="986" y="167" width="41" height="163" rx="3" fill="#7a3b2e"/><rect x="40" y="332" width="1000" height="18" fill="#5a3a26"/><rect x="60" y="384" width="55" height="196" rx="3" fill="#3e6b48"/><rect x="119" y="409" width="40" height="171" rx="3" fill="#c9c1a8"/><rect x="163" y="400" width="42" height="180" rx="3" fill="#8c2f39"/><rect x="209" y="409" width="44" height="171" rx="3" fill="#3e6b48"/><rect x="257" y="394" width="49" height="186" rx="3" fill="#b07d3c"/><rect x="310" y="389" width="58" height="191" rx="3" fill="#c9c1a8"/><rect x="372" y="417" width="48" height="163" rx="3" fill="#c9c1a8"/><rect x="424" y="380" width="34" height="200" rx="3" fill="#7a3b2e"/><rect x="462" y="419" width="47" height="161" rx="3" fill="#5c3a6e"/><rect x="513" y="425" width="46" height="155" rx="3" fill="#2b4c7e"/><rect x="563" y="429" width="40" height="151" rx="3" fill="#7a3b2e"/><rect x="607" y="386" width="51" height="194" rx="3" fill="#8c2f39"/><rect x="662" y="412" width="53" height="168" rx="3" fill="#3e6b48"/><rect x="719" y="423" width="40" height="157" rx="3" fill="#b07d3c"/><rect x="763" y="409" width="40" height="171" rx="3" fill="#b07d3c"/><rect x="807" y="380" width="53" height="200" rx="3" fill="#8c2f39"/><rect x="864" y="413" width="35" height="167" rx="3" fill="#8c2f39"/><rect x="903" y="418" width="35" height="162" rx="3" fill="#2b4c7e"/><rect x="942" y="420" width="49" height="160" rx="3" fill="#c9c1a8"/><rect x="995" y="400" width="37" height="180" rx="3" fill="#8c2f39"/><rect x="40" y="582" width="1000" height="18" fill="#5a3a26"/><rect x="60" y="641" width="59" height="189" rx="3" fill="#7a3b2e"/><rect x="123" y="663" width="60" height="167" rx="3" fill="#7a3b2e"/><rect x="187" y="641" width="51" height="189" rx="3" fill="#b07d3c"/><rect x="242" y="673" width="30" height="157" rx="3" fill="#b07d3c"/><rect x="276" y="634" width="36" height="196" rx="3" fill="#5c3a6e"/><rect x="316" y="631" width="59" height="199" rx="3" fill="#8c2f39"/><rect x="379" y="649" width="44" height="181" rx="3" fill="#7a3b2e"/><rect x="427" y="658" width="58" height="172" rx="3" fill="#2b4c7e"/><rect x="489" y="674" width="28" height="156" rx="3" fill="#b07d3c"/><rect x="521" y="652" width="46" height="178" rx="3" fill="#2b4c7e"/><rect x="571" y="672" width="30" height="158" rx="3" fill="#8c2f39"/><rect x="605" y="641" width="31" height="189" rx="3" fill="#2b4c7e"/><rect x="640" y="661" width="40" height="169" rx="3" fill="#c9c1a8"/><rect x="684" y="645" width="39" height="185" rx="3" fill="#b07d3c"/><rect x="727" y="647" width="60" height="183" rx="3" fill="#c9c1a8"/><rect x="791" y="655" width="60" height="175" rx="3" fill="#2b4c7e"/><rect x="855" y="635" width="40" height="195" rx="3" fill="#5c3a6e"/><rect x="899" y="661" width="57" height="169" rx="3" fill="#c9c1a8"/><rect x="960" y="660" width="57" height="170" rx="3" fill="#2b4c7e"/><rect x="40" y="832" width="1000" height="18" fill="#5a3a26"/><rect x="60" y="923" width="51" height="157" rx="3" fill="#5c3a6e"/><rect x="115" y="883" width="50" height="197" rx="3" fill="#2b4c7e"/><rect x="169" y="886" width="46" height="194" rx="3" fill="#b07d3c"/><rect x="219" y="928" width="38" height="152" rx="3" fill="#7a3b2e"/><rect x="261" y="884" width="35" height="196" rx="3" fill="#b07d3c"/><rect x="300" y="921" width="41" height="159" rx="3" fill="#2b4c7e"/><rect x="345" y="911" width="52" height="169" rx="3" fill="#2b4c7e"/><rect x="401" y="885" width="55" height="195" rx="3" fill="#3e6b48"/><rect x="460" y="881" width="43" height="199" rx="3" fill="#3e6b48"/><rect x="507" y="928" width="30" height="152" rx="3" fill="#b07d3c"/><rect x="541" y="914" width="45" height="166" rx="3" fill="#5c3a6e"/><rect x="590" y="903" width="40" height="177" rx="3" fill="#7a3b2e"/><rect x="634" y="917" width="51" height="163" rx="3" fill="#b07d3c"/><rect x="689" y="902" width="30" height="178" rx="3" fill="#b07d3c"/><rect x="723" y="915" width="40" height="165" rx="3" fill="#2b4c7e"/><rect x="767" y="908" width="48" height="172" rx="3" fill="#3e6b48"/><rect x="819" y="923" width="51" height="157" rx="3" fill="#7a3b2e"/><rect x="874" y="926" width="41" height="154" rx="3" fill="#2b4c7e"/><rect x="919" y="899" width="58" height="181" rx="3" fill="#b07d3c"/><rect x="981" y="888" width="45" height="192" rx="3" fill="#2b4c7e"/><rect x="40" y="1082" width="1000" height="18" fill="#5a3a26"/><rect x="60" y="1178" width="54" height="152" rx="3" fill="#8c2f39"/><rect x="118" y="1171" width="58" height="159" rx="3" fill="#3e6b48"/><rect x="180" y="1180" width="58" height="150" rx="3" fill="#8c2f39"/><rect x="242" y="1156" width="45" height="174" rx="3" fill="#3e6b48"/><rect x="291" y="1161" width="46" height="169" rx="3" fill="#2b4c7e"/><rect x="341" y="1155" width="47" height="175" rx="3" fill="#7a3b2e"/><rect x="392" y="1165" width="42" height="165" rx="3" fill="#5c3a6e"/><rect x="438" y="1140" width="37" height="190" rx="3" fill="#5c3a6e"/><rect x="479" y="1174" width="48" height="156" rx="3" fill="#c9c1a8"/><rect x="531" y="1179" width="40" height="151" rx="3" fill="#3e6b48"/><rect x="575" y="1161" width="59" height="169" rx="3" fill="#c9c1a8"/><rect x="638" y="1147" width="58" height="183" rx="3" fill="#7a3b2e"/><rect x="700" y="1161" width="44" height="169" rx="3" fill="#7a3b2e"/><rect x="748" y="1155" width="52" height="175" rx="3" fill="#c9c1a8"/><rect x="804" y="1145" width="41" height="185" rx="3" fill="#2b4c7e"/><rect x="849" y="1177" width="54" height="153" rx="3" fill="#7a3b2e"/><rect x="907" y="1135" width="43" height="195" rx="3" fill="#2b4c7e"/><rect x="954" y="1154" width="31" height="176" rx="3" fill="#c9c1a8"/><rect x="989" y="1163" width="48" height="167" rx="3" fill="#8c2f39"/><rect x="40" y="1332" width="1000" height="18" fill="#5a3a26"/><rect width="1080" height="1350" fill="url(#warm)"/>
</svg>
